<?xml version="1.0" encoding="UTF-8"?>
<svg viewBox="0 0 512 512" width="512" height="512" xmlns="http://www.w3.org/2000/svg" data-om-id="jsx:/Inline Babel script:5845:135:7"><defs data-om-id="jsx:/Inline Babel script:184:8:7"><linearGradient id="grad-06" x1="0" y1="0" x2="1" y2="1" data-om-id="jsx:/Inline Babel script:199:9:9"><stop offset="0%" stop-color="#e91e63" data-om-id="jsx:/Inline Babel script:272:10:11"/><stop offset="100%" stop-color="#00acc1" data-om-id="jsx:/Inline Babel script:323:11:11"/></linearGradient><linearGradient id="grad-06-soft" x1="0" y1="0" x2="1" y2="1" data-om-id="jsx:/Inline Babel script:400:13:9"><stop offset="0%" stop-color="#ff5a8a" data-om-id="jsx:/Inline Babel script:478:14:11"/><stop offset="55%" stop-color="#b14ba0" data-om-id="jsx:/Inline Babel script:529:15:11"/><stop offset="100%" stop-color="#00acc1" data-om-id="jsx:/Inline Babel script:581:16:11"/></linearGradient><radialGradient id="gloss-06" cx="0.3" cy="0.2" r="0.9" data-om-id="jsx:/Inline Babel script:658:18:9"><stop offset="0%" stop-color="#fff" stop-opacity="0.25" data-om-id="jsx:/Inline Babel script:730:19:11"/><stop offset="60%" stop-color="#fff" stop-opacity="0" data-om-id="jsx:/Inline Babel script:797:20:11"/></radialGradient></defs><rect x="0" y="0" width="512" height="512" rx="113" ry="113" fill="url(#grad-06)" data-om-id="jsx:/Inline Babel script:1181:30:11"/><rect x="0" y="0" width="512" height="512" rx="113" ry="113" fill="url(#gloss-06)" data-om-id="jsx:/Inline Babel script:1288:31:21"/><g fill="#fff" data-om-id="jsx:/Inline Babel script:6012:138:9"><rect x="278" y="120" width="20" height="215" rx="4" data-om-id="jsx:/Inline Babel script:6061:140:11"/><path d="M 298 120 C 360 145 380 195 350 245 C 348 220 330 200 298 183 Z" data-om-id="jsx:/Inline Babel script:6127:141:11"/><ellipse cx="262" cy="333" rx="46" ry="36" transform="rotate(-22 262 333)" data-om-id="jsx:/Inline Babel script:6214:142:11"/><path d="M 130 160 L 138 178 L 156 186 L 138 194 L 130 212 L 122 194 L 104 186 L 122 178 Z" opacity="0.9" data-om-id="jsx:/Inline Babel script:6329:144:11"/><path d="M 400 280 L 405 292 L 417 297 L 405 302 L 400 314 L 395 302 L 383 297 L 395 292 Z" opacity="0.85" data-om-id="jsx:/Inline Babel script:6448:145:11"/><circle cx="150" cy="290" r="6" opacity="0.7" data-om-id="jsx:/Inline Babel script:6568:146:11"/></g><text x="256" y="430" text-anchor="middle" font-family="'Plus Jakarta Sans', sans-serif" font-weight="800" font-size="64" fill="#fff" letter-spacing="3" data-om-id="jsx:/Inline Babel script:6638:148:9">OSHI</text></svg>